<svg xmlns="http://www.w3.org/2000/svg" xmlns:xlink="http://www.w3.org/1999/xlink" version="1.1" x="0px" y="0px" width="33px" height="33px" viewBox="0 0 33 33" enable-background="new 0 0 33 33" xml:space="preserve"><path fill-rule="evenodd" clip-rule="evenodd" fill="#FFFFFF" d="M17.925 2.999c0 0-6.083 0-8.111 0 c-3.637 0-7.059 2.735-7.059 5.903c0 3.2 2.5 5.9 6.2 5.851c0.257 0 0.507-0.005 0.752-0.023 c-0.24 0.457-0.412 0.97-0.412 1.504c0 0.9 0.5 1.6 1.1 2.225c-0.466 0-0.916 0.014-1.406 0 C4.467 18.5 1 21.3 1 24.273c0 2.9 3.8 4.7 8.3 4.728c5.135 0 7.971-2.893 7.971-5.801c0-2.332-0.693-3.729-2.836-5.233 c-0.733-0.515-2.135-1.768-2.135-2.505c0-0.863 0.248-1.288 1.557-2.303c1.341-1.041 2.291-2.503 2.291-4.205 c0-2.026-0.909-4-2.615-4.651h2.572L17.925 2.999z M15.092 22.698c0.064 0.3 0.1 0.5 0.1 0.8 c0 2.35-1.525 4.187-5.902 4.187c-3.113 0-5.362-1.957-5.362-4.307c0-2.303 2.789-4.221 5.902-4.188 c0.727 0 1.4 0.1 2 0.321C13.537 20.7 14.8 21.4 15.1 22.698z M10.107 13.9 c-2.09-0.062-4.076-2.321-4.437-5.045C5.31 6.2 6.7 4.1 8.8 4.139c2.089 0.1 4.1 2.2 4.4 5 C13.597 11.8 12.2 14 10.1 13.932z M26.188 8.77V2.999H24.25V8.77h-5.812v1.923h5.812v5.77h1.938v-5.77H32V8.77H26.188z"/></svg>