<svg xmlns="http://www.w3.org/2000/svg" xmlns:xlink="http://www.w3.org/1999/xlink" version="1.1" x="0px" y="0px" width="26px" height="26px" viewBox="0 0 26 26" enable-background="new 0 0 26 26" xml:space="preserve"><path fill-rule="evenodd" clip-rule="evenodd" fill="#D2D2D2" d="M25.194 22.125l-6.159-5.238c-0.637-0.573-1.317-0.836-1.868-0.811 c1.454-1.703 2.332-3.912 2.332-6.327C19.5 4.4 15.1 0 9.8 0S0 4.4 0 9.75c0 5.4 4.4 9.8 9.8 9.8 c2.415 0 4.624-0.878 6.327-2.332c-0.025 0.6 0.2 1.2 0.8 1.868l5.238 6.159c0.896 1 2.4 1.1 3.3 0.2 C26.274 24.5 26.2 23 25.2 22.125z M9.75 16.25c-3.59 0-6.5-2.911-6.5-6.5s2.91-6.5 6.5-6.5s6.5 2.9 6.5 6.5 S13.34 16.2 9.8 16.25z"/></svg>