<?xml version="1.0" encoding="utf-8"?>
<!-- Generator: Adobe Illustrator 18.0.0, SVG Export Plug-In . SVG Version: 6.00 Build 0)  -->
<!DOCTYPE svg PUBLIC "-//W3C//DTD SVG 1.1//EN" "http://www.w3.org/Graphics/SVG/1.1/DTD/svg11.dtd">
<svg version="1.1" id="Logo" xmlns="http://www.w3.org/2000/svg" xmlns:xlink="http://www.w3.org/1999/xlink" x="0px" y="0px"
	 viewBox="0 0 35 35" enable-background="new 0 0 35 35" xml:space="preserve">
<g>
	<path fill="#FFFFFF" d="M17.5,3.8c4.5,0,5,0,6.7,0.1c1.6,0.1,2.5,0.3,3.1,0.6c0.8,0.3,1.3,0.7,1.9,1.2c0.6,0.6,0.9,1.1,1.2,1.9
		c0.2,0.6,0.5,1.5,0.6,3.1c0.1,1.8,0.1,2.3,0.1,6.7s0,5-0.1,6.7c-0.1,1.6-0.3,2.5-0.6,3.1c-0.3,0.8-0.7,1.3-1.2,1.9
		c-0.6,0.6-1.1,0.9-1.9,1.2c-0.6,0.2-1.5,0.5-3.1,0.6c-1.8,0.1-2.3,0.1-6.7,0.1s-5,0-6.7-0.1c-1.6-0.1-2.5-0.3-3.1-0.6
		c-0.8-0.3-1.3-0.7-1.9-1.2c-0.6-0.6-0.9-1.1-1.2-1.9c-0.2-0.6-0.5-1.5-0.6-3.1c-0.1-1.8-0.1-2.3-0.1-6.7s0-5,0.1-6.7
		C4,9.1,4.3,8.3,4.5,7.7c0.3-0.8,0.7-1.3,1.2-1.9c0.6-0.6,1.1-0.9,1.9-1.2C8.3,4.3,9.1,4,10.8,3.9C12.5,3.9,13,3.8,17.5,3.8
		 M17.5,0.8c-4.5,0-5.1,0-6.9,0.1c-1.8,0.1-3,0.4-4,0.8c-1.1,0.4-2,1-3,1.9c-0.9,0.9-1.5,1.9-1.9,3c-0.4,1.1-0.7,2.3-0.8,4
		c-0.1,1.8-0.1,2.3-0.1,6.9c0,4.5,0,5.1,0.1,6.9c0.1,1.8,0.4,3,0.8,4c0.4,1.1,1,2,1.9,3c0.9,0.9,1.9,1.5,3,1.9
		c1.1,0.4,2.3,0.7,4,0.8c1.8,0.1,2.3,0.1,6.9,0.1s5.1,0,6.9-0.1c1.8-0.1,3-0.4,4-0.8c1.1-0.4,2-1,3-1.9c0.9-0.9,1.5-1.9,1.9-3
		c0.4-1.1,0.7-2.3,0.8-4c0.1-1.8,0.1-2.3,0.1-6.9s0-5.1-0.1-6.9c-0.1-1.8-0.4-3-0.8-4c-0.4-1.1-1-2-1.9-3c-0.9-0.9-1.9-1.5-3-1.9
		c-1.1-0.4-2.3-0.7-4-0.8C22.6,0.8,22,0.8,17.5,0.8L17.5,0.8z"/>
	<path fill="#FFFFFF" d="M17.5,8.9c-4.7,0-8.6,3.8-8.6,8.6s3.8,8.6,8.6,8.6s8.6-3.8,8.6-8.6S22.2,8.9,17.5,8.9z M17.5,23.1
		c-3.1,0-5.6-2.5-5.6-5.6s2.5-5.6,5.6-5.6c3.1,0,5.6,2.5,5.6,5.6S20.6,23.1,17.5,23.1z"/>
	<circle fill="#FFFFFF" cx="26.4" cy="8.6" r="2"/>
</g>
</svg>
