<svg xmlns="http://www.w3.org/2000/svg" xmlns:xlink="http://www.w3.org/1999/xlink" version="1.1" x="0px" y="0px" width="33px" height="27px" viewBox="0 0 33 27" enable-background="new 0 0 33 27" xml:space="preserve"><path fill-rule="evenodd" clip-rule="evenodd" fill="#FFFFFF" d="M32.844 3.204c-1.201 0.522-2.491 0.876-3.845 1 c1.382-0.813 2.443-2.102 2.943-3.636c-1.293 0.753-2.726 1.3-4.25 1.595c-1.221-1.277-2.961-2.075-4.886-2.075 c-3.696 0-6.693 2.942-6.693 6.572c0 0.5 0.1 1 0.2 1.498C10.723 7.9 5.8 5.3 2.5 1.3 c-0.576 0.971-0.906 2.1-0.906 3.304c0 2.3 1.2 4.3 3 5.47c-1.097-0.034-2.129-0.33-3.032-0.822c0 0 0 0.1 0 0.1 c0 3.2 2.3 5.8 5.4 6.444c-0.562 0.15-1.153 0.23-1.764 0.23c-0.431 0-0.851-0.042-1.259-0.118 c0.852 2.6 3.3 4.5 6.3 4.564c-2.291 1.763-5.177 2.813-8.313 2.813c-0.541 0-1.073-0.031-1.597-0.092 c2.962 1.9 6.5 3 10.3 2.953c12.312 0 19.045-10.015 19.045-18.699c0-0.285-0.007-0.568-0.02-0.85 C30.812 5.7 31.9 4.5 32.8 3.204z"/></svg>