<svg xmlns="http://www.w3.org/2000/svg" xmlns:xlink="http://www.w3.org/1999/xlink" version="1.1" x="0px" y="0px" width="33px" height="33px" viewBox="0 0 33 33" enable-background="new 0 0 33 33" xml:space="preserve"><path fill-rule="evenodd" clip-rule="evenodd" fill="#FFFFFF" d="M23.267 19.4c-1.933 1.934-1.933 3.867-3.867 3.9 c-1.933 0-3.867-1.933-5.8-3.867c-1.934-1.933-3.867-3.867-3.867-5.8c0-1.934 1.933-1.934 3.867-3.867C15.533 7.8 9.7 2 7.8 2 C5.867 2 2 7.8 2 7.8c0 3.9 4 11.7 7.7 15.467C13.494 27 21.3 31 25.2 31c0 0 5.8-3.867 5.8-5.8 C31 23.3 25.2 17.5 23.3 19.4z"/></svg>