<svg xmlns="http://www.w3.org/2000/svg" xmlns:xlink="http://www.w3.org/1999/xlink" version="1.1" x="0px" y="0px" width="33px" height="33px" viewBox="0 0 33 33" enable-background="new 0 0 33 33" xml:space="preserve"><path fill-rule="evenodd" clip-rule="evenodd" fill="#FFFFFF" d="M25.815 4H6.727C3.577 4 1 6.7 1 9.911v11.823 c0 3.3 2.6 5.9 5.7 5.912h19.089c3.149 0 5.727-2.66 5.727-5.912V9.911C31.542 6.7 29 4 25.8 4z M29.633 21.7 c0 1.046-0.399 2.034-1.124 2.782c-0.724 0.748-1.681 1.159-2.694 1.159H6.727c-1.014 0-1.97-0.412-2.694-1.159 c-0.725-0.748-1.124-1.735-1.124-2.782V9.911c0-1.046 0.399-2.034 1.124-2.781c0.724-0.748 1.681-1.16 2.694-1.16h19.089 c1.014 0 2 0.4 2.7 1.16c0.725 0.7 1.1 1.7 1.1 2.781V21.734z M12.453 23.705l9.544-7.882l-9.544-7.882V23.705z"/></svg>